<?xml version="1.0" encoding="utf-8"?>
<!-- Generator: Adobe Illustrator 23.0.3, SVG Export Plug-In . SVG Version: 6.00 Build 0)  -->
<svg version="1.1" id="logo" xmlns="http://www.w3.org/2000/svg" xmlns:xlink="http://www.w3.org/1999/xlink" x="0px" y="0px"
	 width="196.48px" height="17.008px" viewBox="0 0 196.48 17.008" style="enable-background:new 0 0 196.48 17.008;"
	 xml:space="preserve">
<style type="text/css">
	.st0{fill:#A0AEC0;}
	.st1{fill:#F7FAFC;}
</style>
<g>
	<g>
		<g>
			<path class="st0" d="M74.382,16.816l3.909-16.622h3.093l-3.909,16.622H74.382z"/>
		</g>
		<g>
			<path class="st0" d="M80.874,16.816l3.909-16.622h3.093l-3.909,16.622H80.874z"/>
		</g>
		<g>
			<path class="st0" d="M87.365,16.816l3.909-16.622h3.093l-3.909,16.622H87.365z"/>
		</g>
	</g>
	<g>
		<path class="st1" d="M12.828,16.814V5.315h-0.169l-3.02,11.499H6.691L3.696,5.315H3.527v11.499H0V0.194h5.387l2.778,10.654h0.169
			l2.779-10.654h5.339v16.621H12.828z"/>
		<path class="st1" d="M28.458,16.814l-0.846-3.333h-4.904l-0.797,3.333h-3.768l4.445-16.621h5.266l4.422,16.621H28.458z
			 M25.22,3.575h-0.145l-1.619,6.813h3.407L25.22,3.575z"/>
		<path class="st1" d="M41.745,16.887c-0.693,0.081-1.346,0.121-1.957,0.121c-1.821,0-3.161-0.254-4.022-0.762
			c-0.862-0.507-1.433-1.341-1.715-2.5c-0.282-1.16-0.423-2.907-0.423-5.242c0-2.303,0.145-4.038,0.434-5.206
			c0.29-1.168,0.866-2.009,1.728-2.524C36.651,0.258,37.984,0,39.788,0c0.628,0,1.276,0.04,1.944,0.121
			c0.668,0.081,1.22,0.186,1.655,0.314v2.9c-1.369-0.145-2.28-0.218-2.73-0.218c-1.096,0-1.848,0.109-2.259,0.326
			c-0.411,0.217-0.672,0.661-0.785,1.329s-0.169,1.913-0.169,3.732c0,1.821,0.056,3.064,0.169,3.732
			c0.113,0.668,0.375,1.111,0.785,1.329c0.411,0.217,1.163,0.325,2.259,0.325c0.934,0,1.868-0.072,2.803-0.217v2.923
			C43.009,16.71,42.437,16.806,41.745,16.887z"/>
		<path class="st1" d="M54.041,16.814v-6.716h-4.445v6.716h-3.769V0.194h3.769v6.62h4.445v-6.62h3.768v16.621H54.041z"/>
		<path class="st1" d="M62.616,16.862c-0.901-0.096-1.691-0.209-2.367-0.338v-2.826c1.61,0.161,3.011,0.241,4.203,0.241
			c0.757,0,1.312-0.035,1.667-0.108c0.354-0.073,0.611-0.242,0.773-0.507c0.161-0.266,0.242-0.705,0.242-1.317
			c0-0.596-0.06-1.038-0.181-1.328c-0.121-0.29-0.322-0.488-0.605-0.592c-0.282-0.105-0.697-0.157-1.243-0.157h-2.537V6.91h2.537
			c0.498,0,0.877-0.044,1.135-0.133c0.258-0.088,0.446-0.27,0.567-0.544c0.121-0.274,0.182-0.693,0.182-1.256
			c0-0.596-0.073-1.027-0.218-1.293c-0.145-0.265-0.394-0.434-0.748-0.507c-0.355-0.073-0.935-0.109-1.74-0.109
			c-1.224,0-2.545,0.088-3.961,0.266V0.484c0.644-0.145,1.409-0.261,2.294-0.351C63.502,0.044,64.308,0,65.032,0
			c1.417,0,2.54,0.153,3.37,0.459c0.83,0.306,1.429,0.773,1.8,1.401c0.371,0.628,0.555,1.458,0.555,2.489
			c0,1.176-0.204,2.073-0.615,2.693s-1.051,1.035-1.921,1.244v0.096c0.918,0.226,1.594,0.628,2.029,1.208
			c0.435,0.58,0.653,1.514,0.653,2.803c0,1.063-0.169,1.925-0.507,2.584c-0.338,0.661-0.939,1.164-1.8,1.51
			c-0.862,0.346-2.057,0.52-3.588,0.52C64.316,17.008,63.519,16.959,62.616,16.862z"/>
	</g>
	<g>
		<path class="st1" d="M97.843,0.194h7.079c1.481,0,2.588,0.346,3.322,1.038c0.732,0.693,1.099,1.74,1.099,3.141
			c0,1.177-0.209,2.07-0.628,2.682c-0.419,0.612-1.071,1.023-1.957,1.233v0.096c0.966,0.226,1.663,0.636,2.09,1.232
			c0.427,0.597,0.64,1.523,0.64,2.779c0,1.449-0.354,2.548-1.063,3.297c-0.709,0.749-1.877,1.124-3.502,1.124h-7.079V0.194z
			 M104.873,6.74c0.258-0.096,0.435-0.269,0.532-0.52c0.096-0.249,0.145-0.623,0.145-1.123c0-0.532-0.045-0.918-0.134-1.16
			c-0.088-0.242-0.258-0.407-0.507-0.495c-0.25-0.088-0.648-0.133-1.195-0.133h-2.15v3.575h2.15
			C104.229,6.885,104.615,6.837,104.873,6.74z M105.007,13.553c0.249-0.096,0.423-0.269,0.519-0.519
			c0.096-0.25,0.145-0.648,0.145-1.196c0-0.547-0.048-0.95-0.145-1.207s-0.274-0.435-0.532-0.532
			c-0.258-0.096-0.652-0.145-1.184-0.145h-2.246v3.745h2.246C104.358,13.698,104.756,13.65,105.007,13.553z"/>
		<path class="st1" d="M123.621,0.194v9.18c0,2.223-0.113,3.833-0.338,4.831c-0.226,0.999-0.741,1.715-1.546,2.15
			c-0.806,0.434-2.126,0.653-3.962,0.653c-1.835,0-3.156-0.218-3.961-0.653c-0.806-0.434-1.325-1.155-1.558-2.162
			c-0.234-1.007-0.351-2.614-0.351-4.82v-9.18h3.769v10.17c0,1.176,0.036,1.99,0.109,2.44c0.073,0.451,0.245,0.749,0.519,0.895
			c0.274,0.145,0.765,0.217,1.474,0.217c0.709,0,1.196-0.073,1.462-0.217c0.266-0.145,0.435-0.439,0.507-0.882
			c0.073-0.443,0.109-1.26,0.109-2.453V0.194H123.621z"/>
		<path class="st1" d="M126.567,16.814V0.194h3.769v16.621H126.567z"/>
		<path class="st1" d="M133.38,16.814V0.194h3.744v13.384h5.508v3.237H133.38z"/>
		<path class="st1" d="M144.637,0.194h5.218c2.094,0,3.588,0.241,4.482,0.724c0.894,0.484,1.45,1.256,1.667,2.319
			c0.217,1.064,0.326,2.819,0.326,5.267s-0.109,4.203-0.326,5.266c-0.217,1.064-0.774,1.836-1.667,2.32
			c-0.894,0.483-2.388,0.724-4.482,0.724h-5.218V0.194z M149.759,13.698c0.999,0,1.667-0.081,2.005-0.242s0.551-0.559,0.64-1.196
			c0.088-0.636,0.133-1.887,0.133-3.756s-0.048-3.12-0.145-3.757c-0.097-0.636-0.311-1.034-0.641-1.195
			c-0.33-0.161-0.994-0.242-1.993-0.242h-1.377v10.388H149.759z"/>
		<path class="st1" d="M159.035,16.814V0.194h10.001V3.31h-6.257v3.552h5.363v3.116h-5.363v3.721h6.257v3.116H159.035z"/>
		<path class="st1" d="M179.787,16.814l-1.933-5.822h-2.416v5.822h-3.744V0.194h6.837c1.368,0,2.4,0.205,3.093,0.615
			c0.692,0.411,1.155,0.995,1.389,1.752c0.233,0.757,0.35,1.764,0.35,3.02c0,1.176-0.129,2.178-0.386,3.008
			c-0.258,0.83-0.781,1.437-1.571,1.823l2.32,6.402H179.787z M178.833,7.73c0.298-0.112,0.495-0.318,0.592-0.615
			s0.145-0.801,0.145-1.51c0-0.725-0.045-1.236-0.134-1.534c-0.088-0.298-0.281-0.498-0.579-0.604
			c-0.299-0.105-0.802-0.157-1.51-0.157h-1.909v4.59h1.884C178.032,7.899,178.535,7.843,178.833,7.73z"/>
		<path class="st1" d="M185.778,16.597V13.65c1.996,0.161,3.414,0.241,4.251,0.241c0.661,0,1.176-0.031,1.546-0.096
			c0.371-0.064,0.636-0.177,0.797-0.338c0.145-0.145,0.237-0.322,0.278-0.532c0.039-0.208,0.06-0.507,0.06-0.894
			c0-0.515-0.032-0.882-0.096-1.099c-0.065-0.217-0.198-0.375-0.399-0.471c-0.202-0.097-0.544-0.186-1.026-0.266l-2.682-0.386
			c-1.225-0.177-2.053-0.653-2.489-1.425c-0.434-0.773-0.652-1.884-0.652-3.334c0-1.401,0.233-2.471,0.701-3.212
			c0.467-0.741,1.103-1.232,1.908-1.474C188.781,0.121,189.803,0,191.044,0c1.531,0,3.1,0.161,4.712,0.484v2.899
			c-1.45-0.177-2.739-0.266-3.866-0.266c-1.191,0-1.956,0.113-2.294,0.338c-0.194,0.113-0.315,0.27-0.363,0.472
			c-0.048,0.202-0.073,0.511-0.073,0.93c0,0.467,0.025,0.797,0.073,0.99c0.048,0.194,0.157,0.335,0.326,0.424
			c0.169,0.088,0.463,0.165,0.882,0.229l2.874,0.411c0.644,0.096,1.18,0.258,1.607,0.483c0.427,0.226,0.777,0.612,1.051,1.16
			c0.338,0.709,0.507,1.723,0.507,3.044c0,1.545-0.217,2.714-0.653,3.502c-0.434,0.789-1.026,1.304-1.775,1.546
			c-0.749,0.242-1.727,0.363-2.935,0.363C189.103,17.008,187.324,16.87,185.778,16.597z"/>
	</g>
</g>
</svg>
